<svg width="28" height="28" viewBox="0 0 28 28" fill="none" xmlns="http://www.w3.org/2000/svg">
<rect width="28" height="28" rx="14" fill="black" fill-opacity="0.35"/>
<path fill-rule="evenodd" clip-rule="evenodd" d="M10.0059 8.82745C9.6805 8.50201 9.15286 8.50201 8.82742 8.82745C8.50198 9.15289 8.50198 9.68053 8.82742 10.006L12.8215 14L8.82742 17.9941C8.50198 18.3196 8.50198 18.8472 8.82742 19.1726C9.15286 19.4981 9.6805 19.4981 10.0059 19.1726L14 15.1786L17.9941 19.1726C18.3195 19.4981 18.8472 19.4981 19.1726 19.1726C19.498 18.8472 19.498 18.3196 19.1726 17.9941L15.1785 14L19.1726 10.006C19.498 9.68053 19.498 9.15289 19.1726 8.82745C18.8472 8.50201 18.3195 8.50201 17.9941 8.82745L14 12.8215L10.0059 8.82745Z" fill="white"/>
</svg>
